<svg width="162" height="166" viewBox="0 0 162 166" fill="none" xmlns="http://www.w3.org/2000/svg">
<g filter="url(#filter0_d_8_8)">
<rect x="15" y="10" width="132" height="136" rx="10" fill="white"/>
</g>
<rect x="15" y="23" width="132" height="38" fill="#FE5F1E" fill-opacity="0.05"/>
<path d="M36.238 46V39.238H29.882V46H31.66V40.792H34.46V46H36.238ZM41.3491 46.168C43.5891 46.168 44.9331 44.544 44.9331 42.612C44.9331 40.694 43.5891 39.07 41.3491 39.07C39.1231 39.07 37.7791 40.694 37.7791 42.612C37.7791 44.544 39.1231 46.168 41.3491 46.168ZM41.3491 44.586C40.2431 44.586 39.6271 43.676 39.6271 42.612C39.6271 41.562 40.2431 40.652 41.3491 40.652C42.4551 40.652 43.0851 41.562 43.0851 42.612C43.0851 43.676 42.4551 44.586 41.3491 44.586ZM52.8182 46V39.238H46.4622V46H48.2402V40.792H51.0402V46H52.8182ZM54.5552 48.646C54.7792 48.702 55.2272 48.744 55.4372 48.744C56.5992 48.716 57.4952 48.38 57.9992 47.106L61.1772 39.238H59.2592L57.4952 43.942L55.7312 39.238H53.8272L56.5712 46.098L56.3192 46.672C56.1512 47.036 55.8432 47.162 55.3812 47.162C55.2132 47.162 54.9752 47.12 54.8212 47.05L54.5552 48.646ZM61.551 46.168C63.273 46.168 64.113 45.062 64.393 42.724L64.617 40.792H66.759V46H68.537V39.238H63.063L62.629 42.514C62.419 44.152 62.097 44.712 61.551 44.712V46.168ZM72.3041 46L73.6341 43.676H75.0201V46H76.7981V39.238H72.6961C71.1981 39.238 70.3581 40.26 70.3581 41.45C70.3581 42.654 71.0861 43.354 71.8561 43.55L70.2881 46H72.3041ZM72.9761 42.192C72.4721 42.192 72.1641 41.884 72.1641 41.45C72.1641 41.03 72.4861 40.736 72.9761 40.736H75.0201V42.192H72.9761ZM82.6115 46.168C84.3475 46.168 85.6075 44.866 85.6075 42.612C85.6075 40.358 84.3475 39.07 82.6115 39.07C81.7855 39.07 81.0435 39.434 80.5255 40.092V39.238H78.7475V48.576H80.5255V45.132C81.0715 45.832 81.8135 46.168 82.6115 46.168ZM82.0515 44.586C81.4775 44.586 80.8195 44.236 80.5255 43.816V41.422C80.8195 40.988 81.4775 40.652 82.0515 40.652C83.0735 40.652 83.7595 41.45 83.7595 42.612C83.7595 43.788 83.0735 44.586 82.0515 44.586ZM88.8976 46V43.298H91.6976V46H93.4756V39.238H91.6976V41.744H88.8976V39.238H87.1196V46H88.8976ZM98.5867 46.168C100.827 46.168 102.171 44.544 102.171 42.612C102.171 40.694 100.827 39.07 98.5867 39.07C96.3607 39.07 95.0167 40.694 95.0167 42.612C95.0167 44.544 96.3607 46.168 98.5867 46.168ZM98.5867 44.586C97.4807 44.586 96.8647 43.676 96.8647 42.612C96.8647 41.562 97.4807 40.652 98.5867 40.652C99.6927 40.652 100.323 41.562 100.323 42.612C100.323 43.676 99.6927 44.586 98.5867 44.586ZM106.85 46.168C108.236 46.168 109.076 45.566 109.524 44.936L108.362 43.858C108.04 44.306 107.55 44.586 106.934 44.586C105.856 44.586 105.1 43.788 105.1 42.612C105.1 41.436 105.856 40.652 106.934 40.652C107.55 40.652 108.04 40.904 108.362 41.38L109.524 40.288C109.076 39.672 108.236 39.07 106.85 39.07C104.764 39.07 103.266 40.54 103.266 42.612C103.266 44.698 104.764 46.168 106.85 46.168ZM113.934 46V40.792H115.824V39.238H110.252V40.792H112.142V46H113.934ZM118.857 46L121.727 41.758V46H123.505V39.238H121.713L118.927 43.326V39.238H117.149V46H118.857Z" fill="#FE5F1E"/>
<path d="M35.678 84V77.238H30.05V84H31.1V78.162H34.628V84H35.678ZM40.9386 84.168C42.9966 84.168 44.2846 82.572 44.2846 80.612C44.2846 78.652 42.9966 77.07 40.9386 77.07C38.8806 77.07 37.5926 78.652 37.5926 80.612C37.5926 82.572 38.8806 84.168 40.9386 84.168ZM40.9386 83.23C39.4966 83.23 38.6846 81.998 38.6846 80.612C38.6846 79.24 39.4966 78.008 40.9386 78.008C42.3806 78.008 43.1786 79.24 43.1786 80.612C43.1786 81.998 42.3806 83.23 40.9386 83.23ZM55.3877 85.722H56.4377V83.076H55.6537V77.238H54.6037V83.076H51.0757V77.238H50.0257V84H55.3877V85.722ZM61.1354 84.168C62.2414 84.168 63.1514 83.804 63.8234 83.132L63.3194 82.446C62.7874 82.992 62.0034 83.3 61.2334 83.3C59.7774 83.3 58.8814 82.236 58.7974 80.962H64.2714V80.696C64.2714 78.666 63.0674 77.07 61.0234 77.07C59.0914 77.07 57.6914 78.652 57.6914 80.612C57.6914 82.726 59.1334 84.168 61.1354 84.168ZM63.2354 80.192H58.7974C58.8534 79.156 59.5674 77.938 61.0094 77.938C62.5494 77.938 63.2214 79.184 63.2354 80.192ZM67.232 84V80.976H70.76V84H71.81V77.238H70.76V80.052H67.232V77.238H66.182V84H67.232ZM77.1686 84.168C78.2746 84.168 79.1846 83.804 79.8566 83.132L79.3526 82.446C78.8206 82.992 78.0366 83.3 77.2666 83.3C75.8106 83.3 74.9146 82.236 74.8306 80.962H80.3046V80.696C80.3046 78.666 79.1006 77.07 77.0566 77.07C75.1246 77.07 73.7246 78.652 73.7246 80.612C73.7246 82.726 75.1666 84.168 77.1686 84.168ZM79.2686 80.192H74.8306C74.8866 79.156 75.6006 77.938 77.0426 77.938C78.5826 77.938 79.2546 79.184 79.2686 80.192Z" fill="black"/>
<path d="M35.678 122V115.238H30.05V122H31.1V116.162H34.628V122H35.678ZM40.9386 122.168C42.9966 122.168 44.2846 120.572 44.2846 118.612C44.2846 116.652 42.9966 115.07 40.9386 115.07C38.8806 115.07 37.5926 116.652 37.5926 118.612C37.5926 120.572 38.8806 122.168 40.9386 122.168ZM40.9386 121.23C39.4966 121.23 38.6846 119.998 38.6846 118.612C38.6846 117.24 39.4966 116.008 40.9386 116.008C42.3806 116.008 43.1786 117.24 43.1786 118.612C43.1786 119.998 42.3806 121.23 40.9386 121.23ZM55.3037 122V117.352C55.3037 115.714 54.1137 115.07 52.6857 115.07C51.5797 115.07 50.7117 115.434 49.9837 116.19L50.4737 116.918C51.0757 116.274 51.7337 115.98 52.5457 115.98C53.5257 115.98 54.2537 116.498 54.2537 117.408V118.626C53.7077 117.996 52.9377 117.702 52.0137 117.702C50.8657 117.702 49.6477 118.416 49.6477 119.928C49.6477 121.398 50.8657 122.168 52.0137 122.168C52.9237 122.168 53.6937 121.846 54.2537 121.23V122H55.3037ZM52.3917 121.412C51.4117 121.412 50.7257 120.796 50.7257 119.942C50.7257 119.074 51.4117 118.458 52.3917 118.458C53.1337 118.458 53.8477 118.738 54.2537 119.298V120.572C53.8477 121.132 53.1337 121.412 52.3917 121.412ZM56.8205 122.168C58.1225 122.168 58.8505 121.216 59.1585 118.696L59.4665 116.162H62.1965V122H63.2465V115.238H58.5425L58.1085 118.57C57.8425 120.572 57.4505 121.3 56.8205 121.3V122.168ZM67.7231 115.07C66.2951 115.07 65.2871 116.442 65.2871 118.626C65.2871 120.824 66.2951 122.168 67.7231 122.168C68.4931 122.168 69.1791 121.678 69.5711 120.992V124.576H70.6211V120.978C71.0551 121.734 71.7131 122.168 72.4551 122.168C73.8831 122.168 74.8911 120.796 74.8911 118.612C74.8911 116.414 73.8831 115.07 72.4551 115.07C71.6851 115.07 71.0131 115.56 70.6211 116.246V112.662H69.5711V116.26C69.1231 115.504 68.4651 115.07 67.7231 115.07ZM68.0171 116.008C68.6611 116.008 69.2911 116.512 69.5711 117.1V120.152C69.2911 120.74 68.6611 121.23 68.0171 121.23C66.9671 121.23 66.3511 120.124 66.3511 118.626C66.3511 117.128 66.9671 116.008 68.0171 116.008ZM72.1611 121.23C71.5311 121.23 70.9011 120.726 70.6211 120.138V117.086C70.9011 116.498 71.5311 116.008 72.1611 116.008C73.2111 116.008 73.8271 117.114 73.8271 118.612C73.8271 120.11 73.2111 121.23 72.1611 121.23ZM82.211 122V117.352C82.211 115.714 81.021 115.07 79.593 115.07C78.487 115.07 77.619 115.434 76.891 116.19L77.381 116.918C77.983 116.274 78.641 115.98 79.453 115.98C80.433 115.98 81.161 116.498 81.161 117.408V118.626C80.615 117.996 79.845 117.702 78.921 117.702C77.773 117.702 76.555 118.416 76.555 119.928C76.555 121.398 77.773 122.168 78.921 122.168C79.831 122.168 80.601 121.846 81.161 121.23V122H82.211ZM79.299 121.412C78.319 121.412 77.633 120.796 77.633 119.942C77.633 119.074 78.319 118.458 79.299 118.458C80.041 118.458 80.755 118.738 81.161 119.298V120.572C80.755 121.132 80.041 121.412 79.299 121.412ZM88.3199 122C89.5659 122 90.2939 121.258 90.2939 120.166C90.2939 119.396 89.7479 118.682 89.0619 118.514C89.6359 118.332 90.1539 117.786 90.1539 116.974C90.1539 115.952 89.4399 115.238 88.2499 115.238H84.5259V122H88.3199ZM88.1099 121.076H85.5759V118.99H88.1099C88.8239 118.99 89.2019 119.494 89.2019 120.04C89.2019 120.684 88.7819 121.076 88.1099 121.076ZM88.0679 118.066H85.5759V116.162H88.0679C88.7119 116.162 89.0759 116.54 89.0759 117.128C89.0759 117.66 88.7259 118.066 88.0679 118.066ZM93.4958 122L97.0658 116.736V122H98.1158V115.238H97.0798L93.5378 120.404V115.238H92.4878V122H93.4958ZM102.704 122V116.162H104.678V115.238H99.6944V116.162H101.654V122H102.704ZM105.887 124.646C106.083 124.702 106.433 124.744 106.657 124.744C107.553 124.73 108.239 124.352 108.645 123.372L112.033 115.238H110.885L108.645 120.782L106.391 115.238H105.257L108.085 122.07L107.637 123.092C107.399 123.652 107.091 123.806 106.629 123.806C106.461 123.806 106.209 123.764 106.055 123.694L105.887 124.646Z" fill="black"/>
<defs>
<filter id="filter0_d_8_8" x="0" y="0" width="162" height="166" filterUnits="userSpaceOnUse" color-interpolation-filters="sRGB">
<feFlood flood-opacity="0" result="BackgroundImageFix"/>
<feColorMatrix in="SourceAlpha" type="matrix" values="0 0 0 0 0 0 0 0 0 0 0 0 0 0 0 0 0 0 127 0" result="hardAlpha"/>
<feOffset dy="5"/>
<feGaussianBlur stdDeviation="7.5"/>
<feColorMatrix type="matrix" values="0 0 0 0 0 0 0 0 0 0 0 0 0 0 0 0 0 0 0.09 0"/>
<feBlend mode="normal" in2="BackgroundImageFix" result="effect1_dropShadow_8_8"/>
<feBlend mode="normal" in="SourceGraphic" in2="effect1_dropShadow_8_8" result="shape"/>
</filter>
</defs>
</svg>
