<svg width="224" height="19" viewBox="0 0 224 19" fill="none" xmlns="http://www.w3.org/2000/svg">
<path d="M22.446 13.168C24.504 13.168 25.68 12.034 26.352 10.872L24.644 10.046C24.252 10.816 23.412 11.404 22.446 11.404C20.752 11.404 19.52 10.102 19.52 8.338C19.52 6.574 20.752 5.272 22.446 5.272C23.412 5.272 24.252 5.874 24.644 6.63L26.352 5.79C25.694 4.628 24.504 3.508 22.446 3.508C19.646 3.508 17.476 5.468 17.476 8.338C17.476 11.208 19.646 13.168 22.446 13.168ZM30.8393 13.168C33.0793 13.168 34.4233 11.544 34.4233 9.612C34.4233 7.694 33.0793 6.07 30.8393 6.07C28.6133 6.07 27.2693 7.694 27.2693 9.612C27.2693 11.544 28.6133 13.168 30.8393 13.168ZM30.8393 11.586C29.7333 11.586 29.1173 10.676 29.1173 9.612C29.1173 8.562 29.7333 7.652 30.8393 7.652C31.9453 7.652 32.5753 8.562 32.5753 9.612C32.5753 10.676 31.9453 11.586 30.8393 11.586ZM39.8164 13.168C41.5524 13.168 42.8124 11.866 42.8124 9.612C42.8124 7.358 41.5524 6.07 39.8164 6.07C38.9904 6.07 38.2484 6.434 37.7304 7.092V6.238H35.9524V15.576H37.7304V12.132C38.2764 12.832 39.0184 13.168 39.8164 13.168ZM39.2564 11.586C38.6824 11.586 38.0244 11.236 37.7304 10.816V8.422C38.0244 7.988 38.6824 7.652 39.2564 7.652C40.2784 7.652 40.9644 8.45 40.9644 9.612C40.9644 10.788 40.2784 11.586 39.2564 11.586ZM47.3625 13V7.792H49.2525V6.238H43.6805V7.792H45.5705V13H47.3625ZM52.2855 13L55.1555 8.758V13H56.9335V6.238H55.1415L52.3555 10.326V6.238H50.5775V13H52.2855ZM62.7726 13.168C64.5086 13.168 65.7686 11.866 65.7686 9.612C65.7686 7.358 64.5086 6.07 62.7726 6.07C61.9466 6.07 61.2046 6.434 60.6866 7.092V6.238H58.9086V15.576H60.6866V12.132C61.2326 12.832 61.9746 13.168 62.7726 13.168ZM62.2126 11.586C61.6386 11.586 60.9806 11.236 60.6866 10.816V8.422C60.9806 7.988 61.6386 7.652 62.2126 7.652C63.2346 7.652 63.9206 8.45 63.9206 9.612C63.9206 10.788 63.2346 11.586 62.2126 11.586ZM70.4167 13.168C72.6567 13.168 74.0007 11.544 74.0007 9.612C74.0007 7.694 72.6567 6.07 70.4167 6.07C68.1907 6.07 66.8467 7.694 66.8467 9.612C66.8467 11.544 68.1907 13.168 70.4167 13.168ZM70.4167 11.586C69.3107 11.586 68.6947 10.676 68.6947 9.612C68.6947 8.562 69.3107 7.652 70.4167 7.652C71.5227 7.652 72.1527 8.562 72.1527 9.612C72.1527 10.676 71.5227 11.586 70.4167 11.586ZM79.9397 13C81.2977 13 82.0257 12.188 82.0257 11.166C82.0257 10.354 81.4797 9.682 80.7377 9.514C81.3677 9.332 81.8857 8.786 81.8857 7.974C81.8857 7.064 81.1857 6.238 79.8137 6.238H75.5297V13H79.9397ZM79.5057 11.544H77.3077V10.284H79.5057C79.9537 10.284 80.2057 10.578 80.2057 10.914C80.2057 11.306 79.9397 11.544 79.5057 11.544ZM79.4497 8.828H77.3077V7.694H79.4497C79.8417 7.694 80.0797 7.932 80.0797 8.268C80.0797 8.576 79.8417 8.828 79.4497 8.828ZM90.5509 13L87.7929 9.304L90.4669 6.238H88.2829L85.7209 9.248V6.238H83.9429V13H85.7209V11.264L86.5329 10.396L88.3249 13H90.5509ZM97.483 13V8.632C97.483 6.686 96.069 6.07 94.529 6.07C93.465 6.07 92.401 6.406 91.575 7.134L92.247 8.324C92.821 7.792 93.493 7.526 94.221 7.526C95.117 7.526 95.705 7.974 95.705 8.66V9.57C95.257 9.038 94.459 8.744 93.563 8.744C92.485 8.744 91.211 9.346 91.211 10.928C91.211 12.44 92.485 13.168 93.563 13.168C94.445 13.168 95.243 12.846 95.705 12.3V13H97.483ZM94.277 11.964C93.577 11.964 93.003 11.6 93.003 10.97C93.003 10.312 93.577 9.948 94.277 9.948C94.851 9.948 95.411 10.144 95.705 10.536V11.376C95.411 11.768 94.851 11.964 94.277 11.964ZM109.605 13V6.238H103.249V13H105.027V7.792H107.827V13H109.605ZM114.716 13.168C116.956 13.168 118.3 11.544 118.3 9.612C118.3 7.694 116.956 6.07 114.716 6.07C112.49 6.07 111.146 7.694 111.146 9.612C111.146 11.544 112.49 13.168 114.716 13.168ZM114.716 11.586C113.61 11.586 112.994 10.676 112.994 9.612C112.994 8.562 113.61 7.652 114.716 7.652C115.822 7.652 116.452 8.562 116.452 9.612C116.452 10.676 115.822 11.586 114.716 11.586ZM120.739 8.408C121.355 8.408 121.873 7.89 121.873 7.274C121.873 6.658 121.355 6.14 120.739 6.14C120.123 6.14 119.605 6.658 119.605 7.274C119.605 7.89 120.123 8.408 120.739 8.408ZM120.739 13.154C121.355 13.154 121.873 12.636 121.873 12.02C121.873 11.404 121.355 10.886 120.739 10.886C120.123 10.886 119.605 11.404 119.605 12.02C119.605 12.636 120.123 13.154 120.739 13.154Z" fill="#2C2C2C"/>
<path d="M10 11C10 11.1693 9.93815 11.3158 9.81445 11.4395C9.69075 11.5632 9.54427 11.625 9.375 11.625H0.625C0.455729 11.625 0.309245 11.5632 0.185547 11.4395C0.061849 11.3158 0 11.1693 0 11C0 10.8307 0.061849 10.6842 0.185547 10.5605L4.56055 6.18555C4.68424 6.06185 4.83073 6 5 6C5.16927 6 5.31576 6.06185 5.43945 6.18555L9.81445 10.5605C9.93815 10.6842 10 10.8307 10 11Z" fill="#2C2C2C"/>
<path d="M137.678 13V6.238H132.05V13H133.1V7.162H136.628V13H137.678ZM142.939 13.168C144.997 13.168 146.285 11.572 146.285 9.612C146.285 7.652 144.997 6.07 142.939 6.07C140.881 6.07 139.593 7.652 139.593 9.612C139.593 11.572 140.881 13.168 142.939 13.168ZM142.939 12.23C141.497 12.23 140.685 10.998 140.685 9.612C140.685 8.24 141.497 7.008 142.939 7.008C144.381 7.008 145.179 8.24 145.179 9.612C145.179 10.998 144.381 12.23 142.939 12.23ZM153.834 13V6.238H148.206V13H149.256V7.162H152.784V13H153.834ZM155.763 15.646C155.959 15.702 156.309 15.744 156.533 15.744C157.429 15.73 158.115 15.352 158.521 14.372L161.909 6.238H160.761L158.521 11.782L156.267 6.238H155.133L157.961 13.07L157.513 14.092C157.275 14.652 156.967 14.806 156.505 14.806C156.337 14.806 156.085 14.764 155.931 14.694L155.763 15.646ZM162.416 13.168C163.718 13.168 164.446 12.216 164.754 9.696L165.062 7.162H167.792V13H168.842V6.238H164.138L163.704 9.57C163.438 11.572 163.046 12.3 162.416 12.3V13.168ZM172.157 13L173.809 10.382H175.657V13H176.707V6.238H173.137C171.765 6.238 170.995 7.162 170.995 8.31C170.995 9.444 171.723 10.214 172.731 10.34L170.925 13H172.157ZM173.249 9.458C172.479 9.458 172.073 8.982 172.073 8.31C172.073 7.638 172.507 7.162 173.249 7.162H175.657V9.458H173.249ZM182.347 13.168C184.125 13.168 185.357 11.796 185.357 9.612C185.357 7.414 184.125 6.07 182.347 6.07C181.395 6.07 180.555 6.56 180.065 7.246V6.238H179.015V15.576H180.065V11.978C180.611 12.734 181.423 13.168 182.347 13.168ZM182.081 12.23C181.255 12.23 180.429 11.726 180.065 11.138V8.086C180.429 7.498 181.255 7.008 182.081 7.008C183.439 7.008 184.251 8.114 184.251 9.612C184.251 11.11 183.439 12.23 182.081 12.23ZM188.287 13V9.976H191.815V13H192.865V6.238H191.815V9.052H188.287V6.238H187.237V13H188.287ZM198.125 13.168C200.183 13.168 201.471 11.572 201.471 9.612C201.471 7.652 200.183 6.07 198.125 6.07C196.067 6.07 194.779 7.652 194.779 9.612C194.779 11.572 196.067 13.168 198.125 13.168ZM198.125 12.23C196.683 12.23 195.871 10.998 195.871 9.612C195.871 8.24 196.683 7.008 198.125 7.008C199.567 7.008 200.365 8.24 200.365 9.612C200.365 10.998 199.567 12.23 198.125 12.23ZM206.375 13.168C207.607 13.168 208.335 12.664 208.853 11.992L208.153 11.348C207.705 11.95 207.131 12.23 206.431 12.23C204.989 12.23 204.093 11.11 204.093 9.612C204.093 8.114 204.989 7.008 206.431 7.008C207.131 7.008 207.705 7.274 208.153 7.89L208.853 7.246C208.335 6.574 207.607 6.07 206.375 6.07C204.359 6.07 203.001 7.61 203.001 9.612C203.001 11.628 204.359 13.168 206.375 13.168ZM212.817 13V7.162H214.791V6.238H209.807V7.162H211.767V13H212.817ZM217.386 13L220.956 7.736V13H222.006V6.238H220.97L217.428 11.404V6.238H216.378V13H217.386Z" fill="#FE5F1E"/>
<rect x="132.25" y="18.25" width="89.5" height="0.5" stroke="#FE5F1E" stroke-width="0.5" stroke-dasharray="1 1"/>
</svg>
