<svg width="17" height="18" viewBox="0 0 17 18" fill="none" xmlns="http://www.w3.org/2000/svg">
<path d="M5.33333 16.3333C6.06971 16.3333 6.66667 15.7364 6.66667 15C6.66667 14.2636 6.06971 13.6667 5.33333 13.6667C4.59695 13.6667 4 14.2636 4 15C4 15.7364 4.59695 16.3333 5.33333 16.3333Z" stroke="white" stroke-width="1.8" stroke-linecap="round" stroke-linejoin="round"/>
<path d="M13.3333 16.3333C14.0697 16.3333 14.6667 15.7364 14.6667 15C14.6667 14.2636 14.0697 13.6667 13.3333 13.6667C12.597 13.6667 12 14.2636 12 15C12 15.7364 12.597 16.3333 13.3333 16.3333Z" stroke="white" stroke-width="1.8" stroke-linecap="round" stroke-linejoin="round"/>
<path d="M4.11333 4.33333H15.6667L14.5467 9.92667C14.4857 10.2336 14.3187 10.5093 14.075 10.7055C13.8312 10.9018 13.5262 11.006 13.2133 11H6.16667C5.84112 11.0028 5.52582 10.8863 5.2802 10.6726C5.03459 10.459 4.87564 10.1628 4.83333 9.84L3.82 2.16C3.77798 1.83949 3.62095 1.54516 3.37813 1.33178C3.13532 1.1184 2.82325 1.00049 2.5 1H1" stroke="white" stroke-width="1.8" stroke-linecap="round" stroke-linejoin="round"/>
</svg>
